<?xml version="1.0" encoding="UTF-8"?>
<svg width="36" height="36" version="1.1" viewBox="0 0 36 36" xmlns="http://www.w3.org/2000/svg" xmlns:cc="http://creativecommons.org/ns#" xmlns:dc="http://purl.org/dc/elements/1.1/" xmlns:rdf="http://www.w3.org/1999/02/22-rdf-syntax-ns#">
 <path d="m18 15.115q2.2312 0 3.8156 1.5234 1.5844 1.5234 1.5844 3.6689 0 2.1454-1.5844 3.6689-1.5844 1.5234-3.8156 1.5234-2.2313 0-3.8156-1.5234-1.5844-1.5234-1.5844-3.6689 0-2.1454 1.5844-3.6689 1.5844-1.5234 3.8156-1.5234zm13.2-7.5q1.9875 0 3.3937 1.3522 1.4062 1.3522 1.4062 3.2632v16.154q0 1.9111-1.4062 3.2632-1.4062 1.3522-3.3937 1.3522h-26.4q-1.9875 0-3.3938-1.3522-1.4062-1.3522-1.4062-3.2632v-16.154q0-1.9111 1.4062-3.2632 1.4063-1.3522 3.3938-1.3522h4.2l0.95625-2.4519q0.35625-0.88341 1.3031-1.5234 0.94688-0.64003 1.9406-0.64003h9.6q0.99375 0 1.9406 0.64003 0.94688 0.64002 1.3031 1.5234l0.95625 2.4519zm-13.2 20.769q3.4687 0 5.9344-2.3708 2.4656-2.3708 2.4656-5.7061 0-3.3353-2.4656-5.7061-2.4656-2.3708-5.9344-2.3708-3.4688 0-5.9344 2.3708-2.4656 2.3708-2.4656 5.7061 0 3.3353 2.4656 5.7061 2.4656 2.3708 5.9344 2.3708z" fill="#424244"/>
</svg>
